<svg width="100" height="100" viewBox="0 0 100 100" fill="none" xmlns="http://www.w3.org/2000/svg">
<path d="M70.325 55.1125L51.575 44.175C51.097 43.8961 50.5535 43.7491 50 43.7491C49.4465 43.7491 48.903 43.8961 48.425 44.175L29.675 55.1125C29.2032 55.3878 28.8118 55.782 28.5398 56.2558C28.2679 56.7295 28.1248 57.2663 28.125 57.8125V79.6875C28.1248 80.2338 28.2679 80.7705 28.5398 81.2443C28.8118 81.718 29.2032 82.1122 29.675 82.3875L48.425 93.325C48.903 93.604 49.4465 93.7509 50 93.7509C50.5535 93.7509 51.097 93.604 51.575 93.325L70.325 82.3875C70.7968 82.1122 71.1882 81.718 71.4602 81.2443C71.7321 80.7705 71.8752 80.2338 71.875 79.6875V57.8125C71.8752 57.2663 71.7321 56.7295 71.4602 56.2558C71.1882 55.782 70.7968 55.3878 70.325 55.1125ZM65.625 74.4813L57.7125 69.7344C57.7531 69.4094 57.8125 69.0875 57.8125 68.75C57.8097 67.2318 57.365 65.7473 56.5326 64.4776C55.7002 63.2079 54.5161 62.208 53.125 61.6V52.3188L65.625 59.6063V74.4813ZM46.875 52.3156V61.5969C45.4834 62.2051 44.299 63.2055 43.4666 64.4758C42.6341 65.746 42.1897 67.2313 42.1875 68.75C42.1875 69.0875 42.2469 69.4063 42.2875 69.7344L34.375 74.4813V59.6063L46.875 52.3156ZM50 87.0063L37.65 79.8031L45.4844 75.1031C46.7656 76.0125 48.3156 76.5625 50 76.5625C51.6844 76.5625 53.2375 76.0125 54.5156 75.1031L62.35 79.8031L50 87.0063Z" fill="#fff"/>
<path d="M77.0108 28.6658L77.0787 28.9875L77.401 29.0526C86.4522 30.8811 93.25 38.96 93.25 48.4375C93.25 57.5413 87.033 65.2548 78.625 67.5441V61.9419C84.0777 59.85 88 54.6299 88 48.4375C88 40.8954 82.1122 34.5229 74.6033 33.9079L74.599 33.9076L72.4459 33.75L72.1838 31.6265C70.8092 20.4386 61.284 12 50 12C38.716 12 29.1908 20.4386 27.8162 31.6265L27.5541 33.75L25.401 33.9076L25.3988 33.9077C17.8864 34.4906 12 40.8972 12 48.4375C12 54.6624 15.9241 59.8219 21.375 61.9107V67.513C12.9658 65.2261 6.75 57.5705 6.75 48.4375C6.75 38.9908 13.5482 30.881 22.599 29.0526L22.9213 28.9875L22.9892 28.6658C25.6597 16.0194 36.864 6.75 50 6.75C63.136 6.75 74.3403 16.0194 77.0108 28.6658Z" fill="#fff" stroke="#fff"/>
</svg>
